<svg xmlns="http://www.w3.org/2000/svg" viewBox="0 0 195 48" height="42" fill="none">
  <g transform="translate(6, 6)">
    <g transform="translate(0, 3) scale(1.15)">
      <path d="M23.5 12.8c0-.9-.1-1.8-.2-2.6H12v4.9h6.5c-.3 1.5-1.1 2.8-2.4 3.7v3.1h3.9c2.3-2.1 3.5-5.2 3.5-9.1z" fill="#4285F4"/>
      <path d="M12 24.5c3.3 0 6.1-1.1 8.1-3l-3.9-3.1c-1.1.7-2.5 1.2-4.2 1.2-3.2 0-6-2.2-7-5.1H1v3.2c2.1 4.1 6.3 6.8 11 6.8z" fill="#34A853"/>
      <path d="M5 14.5c-.3-.8-.4-1.6-.4-2.5s.2-1.7.4-2.5V6.3H1c-.9 1.7-1.4 3.6-1.4 5.7s.5 4 1.4 5.7l4-3.2z" fill="#FBBC05"/>
      <path d="M12 4.4c1.8 0 3.4.6 4.7 1.8l3.5-3.5C18.1 1 15.3 0 12 0 7.3 0 3.1 2.7 1 6.8l4 3.2c1-2.9 3.8-5.6 7-5.6z" fill="#EA4335"/>
    </g>
    <text x="40" y="20" font-family="'Adobe Clean', 'Plus Jakarta Sans', -apple-system, BlinkMacSystemFont, 'Segoe UI', Roboto, sans-serif" font-size="17" font-weight="800" fill="#111827" letter-spacing="-0.02em">Google</text>
    <text x="40" y="30.5" font-family="'Adobe Clean', 'Plus Jakarta Sans', -apple-system, BlinkMacSystemFont, 'Segoe UI', Roboto, sans-serif" font-size="8.5" font-weight="700" fill="#4B5563" letter-spacing="0.08em">PREMIER PARTNER</text>
  </g>
</svg>
